<?xml version="1.0" encoding="UTF-8" standalone="no"?>
<!DOCTYPE svg PUBLIC "-//W3C//DTD SVG 1.1//EN"
 "http://www.w3.org/Graphics/SVG/1.1/DTD/svg11.dtd">
<!-- Generated by graphviz version 12.2.1 (20241206.2353)
 -->
<!-- Title: mygraph Pages: 1 -->
<svg width="2796pt" height="409pt"
 viewBox="0.00 0.00 2796.25 409.00" xmlns="http://www.w3.org/2000/svg" xmlns:xlink="http://www.w3.org/1999/xlink">
<g id="graph0" class="graph" transform="scale(1 1) rotate(0) translate(4 405)">
<title>mygraph</title>
<polygon fill="white" stroke="none" points="-4,4 -4,-405 2792.25,-405 2792.25,4 -4,4"/>
<!-- //:runner -->
<g id="node1" class="node">
<title>//:runner</title>
<polygon fill="none" stroke="black" points="677.75,-401 615.25,-401 615.25,-365 677.75,-365 677.75,-401"/>
<text text-anchor="middle" x="646.5" y="-377.95" font-family="Times,serif" font-size="14.00">//:runner</text>
</g>
<!-- //:src/main/java/com/example/Runner.java\n@bazel_tools//tools/jdk:launcher_flag_alias -->
<g id="node2" class="node">
<title>//:src/main/java/com/example/Runner.java\n@bazel_tools//tools/jdk:launcher_flag_alias</title>
<polygon fill="none" stroke="black" points="636.75,-329 382.25,-329 382.25,-288 636.75,-288 636.75,-329"/>
<text text-anchor="middle" x="509.5" y="-311.7" font-family="Times,serif" font-size="14.00">//:src/main/java/com/example/Runner.java</text>
<text text-anchor="middle" x="509.5" y="-295.2" font-family="Times,serif" font-size="14.00">@bazel_tools//tools/jdk:launcher_flag_alias</text>
</g>
<!-- //:runner&#45;&gt;//:src/main/java/com/example/Runner.java\n@bazel_tools//tools/jdk:launcher_flag_alias -->
<g id="edge1" class="edge">
<title>//:runner&#45;&gt;//:src/main/java/com/example/Runner.java\n@bazel_tools//tools/jdk:launcher_flag_alias</title>
<path fill="none" stroke="black" d="M615.07,-365.37C597.93,-356.3 576.35,-344.88 557.18,-334.73"/>
<polygon fill="black" stroke="black" points="558.93,-331.7 548.45,-330.11 555.66,-337.89 558.93,-331.7"/>
</g>
<!-- //src/main/java/com/example/restaurant:cafe -->
<g id="node3" class="node">
<title>//src/main/java/com/example/restaurant:cafe</title>
<polygon fill="none" stroke="black" points="912.62,-326.5 654.38,-326.5 654.38,-290.5 912.62,-290.5 912.62,-326.5"/>
<text text-anchor="middle" x="783.5" y="-303.45" font-family="Times,serif" font-size="14.00">//src/main/java/com/example/restaurant:cafe</text>
</g>
<!-- //:runner&#45;&gt;//src/main/java/com/example/restaurant:cafe -->
<g id="edge2" class="edge">
<title>//:runner&#45;&gt;//src/main/java/com/example/restaurant:cafe</title>
<path fill="none" stroke="black" d="M677.93,-365.37C696.58,-355.5 720.48,-342.85 740.82,-332.08"/>
<polygon fill="black" stroke="black" points="742.25,-335.29 749.45,-327.52 738.97,-329.1 742.25,-335.29"/>
</g>
<!-- //src/main/java/com/example/restaurant:Cafe.java -->
<g id="node4" class="node">
<title>//src/main/java/com/example/restaurant:Cafe.java</title>
<polygon fill="none" stroke="black" points="781.25,-252 493.75,-252 493.75,-216 781.25,-216 781.25,-252"/>
<text text-anchor="middle" x="637.5" y="-228.95" font-family="Times,serif" font-size="14.00">//src/main/java/com/example/restaurant:Cafe.java</text>
</g>
<!-- //src/main/java/com/example/restaurant:cafe&#45;&gt;//src/main/java/com/example/restaurant:Cafe.java -->
<g id="edge3" class="edge">
<title>//src/main/java/com/example/restaurant:cafe&#45;&gt;//src/main/java/com/example/restaurant:Cafe.java</title>
<path fill="none" stroke="black" d="M748.53,-290.13C728.81,-280.34 703.95,-268 682.76,-257.48"/>
<polygon fill="black" stroke="black" points="684.56,-254.46 674.05,-253.15 681.45,-260.73 684.56,-254.46"/>
</g>
<!-- //src/main/java/com/example/restaurant:chef -->
<g id="node5" class="node">
<title>//src/main/java/com/example/restaurant:chef</title>
<polygon fill="none" stroke="black" points="1058,-252 799,-252 799,-216 1058,-216 1058,-252"/>
<text text-anchor="middle" x="928.5" y="-228.95" font-family="Times,serif" font-size="14.00">//src/main/java/com/example/restaurant:chef</text>
</g>
<!-- //src/main/java/com/example/restaurant:cafe&#45;&gt;//src/main/java/com/example/restaurant:chef -->
<g id="edge4" class="edge">
<title>//src/main/java/com/example/restaurant:cafe&#45;&gt;//src/main/java/com/example/restaurant:chef</title>
<path fill="none" stroke="black" d="M818.23,-290.13C837.73,-280.39 862.28,-268.11 883.26,-257.62"/>
<polygon fill="black" stroke="black" points="884.82,-260.75 892.2,-253.15 881.69,-254.49 884.82,-260.75"/>
</g>
<!-- //src/main/java/com/example/restaurant:Chef.java -->
<g id="node6" class="node">
<title>//src/main/java/com/example/restaurant:Chef.java</title>
<polygon fill="none" stroke="black" points="611.62,-180 323.38,-180 323.38,-144 611.62,-144 611.62,-180"/>
<text text-anchor="middle" x="467.5" y="-156.95" font-family="Times,serif" font-size="14.00">//src/main/java/com/example/restaurant:Chef.java</text>
</g>
<!-- //src/main/java/com/example/restaurant:chef&#45;&gt;//src/main/java/com/example/restaurant:Chef.java -->
<g id="edge5" class="edge">
<title>//src/main/java/com/example/restaurant:chef&#45;&gt;//src/main/java/com/example/restaurant:Chef.java</title>
<path fill="none" stroke="black" d="M813.36,-215.52C746.54,-205.37 662.29,-192.58 593.68,-182.16"/>
<polygon fill="black" stroke="black" points="594.28,-178.71 583.87,-180.67 593.23,-185.63 594.28,-178.71"/>
</g>
<!-- //src/main/java/com/example/dishes:smoothie -->
<g id="node7" class="node">
<title>//src/main/java/com/example/dishes:smoothie</title>
<polygon fill="none" stroke="black" points="895.75,-180 629.25,-180 629.25,-144 895.75,-144 895.75,-180"/>
<text text-anchor="middle" x="762.5" y="-156.95" font-family="Times,serif" font-size="14.00">//src/main/java/com/example/dishes:smoothie</text>
</g>
<!-- //src/main/java/com/example/restaurant:chef&#45;&gt;//src/main/java/com/example/dishes:smoothie -->
<g id="edge6" class="edge">
<title>//src/main/java/com/example/restaurant:chef&#45;&gt;//src/main/java/com/example/dishes:smoothie</title>
<path fill="none" stroke="black" d="M887.04,-215.52C864.97,-206.21 837.62,-194.68 814.18,-184.79"/>
<polygon fill="black" stroke="black" points="815.69,-181.63 805.11,-180.97 812.97,-188.08 815.69,-181.63"/>
</g>
<!-- //src/main/java/com/example/dishes:macAndCheese -->
<g id="node8" class="node">
<title>//src/main/java/com/example/dishes:macAndCheese</title>
<polygon fill="none" stroke="black" points="1411.38,-180 1109.62,-180 1109.62,-144 1411.38,-144 1411.38,-180"/>
<text text-anchor="middle" x="1260.5" y="-156.95" font-family="Times,serif" font-size="14.00">//src/main/java/com/example/dishes:macAndCheese</text>
</g>
<!-- //src/main/java/com/example/restaurant:chef&#45;&gt;//src/main/java/com/example/dishes:macAndCheese -->
<g id="edge7" class="edge">
<title>//src/main/java/com/example/restaurant:chef&#45;&gt;//src/main/java/com/example/dishes:macAndCheese</title>
<path fill="none" stroke="black" d="M1011.42,-215.52C1058.55,-205.58 1117.72,-193.1 1166.56,-182.81"/>
<polygon fill="black" stroke="black" points="1167.23,-186.24 1176.29,-180.75 1165.79,-179.39 1167.23,-186.24"/>
</g>
<!-- //src/main/java/com/example/dishes:pizza -->
<g id="node9" class="node">
<title>//src/main/java/com/example/dishes:pizza</title>
<polygon fill="none" stroke="black" points="2144.88,-180 1900.12,-180 1900.12,-144 2144.88,-144 2144.88,-180"/>
<text text-anchor="middle" x="2022.5" y="-156.95" font-family="Times,serif" font-size="14.00">//src/main/java/com/example/dishes:pizza</text>
</g>
<!-- //src/main/java/com/example/restaurant:chef&#45;&gt;//src/main/java/com/example/dishes:pizza -->
<g id="edge8" class="edge">
<title>//src/main/java/com/example/restaurant:chef&#45;&gt;//src/main/java/com/example/dishes:pizza</title>
<path fill="none" stroke="black" d="M1058.29,-224.7C1267.4,-211.32 1676.78,-185.12 1888.52,-171.57"/>
<polygon fill="black" stroke="black" points="1888.74,-175.07 1898.5,-170.93 1888.3,-168.08 1888.74,-175.07"/>
</g>
<!-- //src/main/java/com/example/dishes:Smoothie.java -->
<g id="node20" class="node">
<title>//src/main/java/com/example/dishes:Smoothie.java</title>
<polygon fill="none" stroke="black" points="295,-108 0,-108 0,-72 295,-72 295,-108"/>
<text text-anchor="middle" x="147.5" y="-84.95" font-family="Times,serif" font-size="14.00">//src/main/java/com/example/dishes:Smoothie.java</text>
</g>
<!-- //src/main/java/com/example/dishes:smoothie&#45;&gt;//src/main/java/com/example/dishes:Smoothie.java -->
<g id="edge20" class="edge">
<title>//src/main/java/com/example/dishes:smoothie&#45;&gt;//src/main/java/com/example/dishes:Smoothie.java</title>
<path fill="none" stroke="black" d="M629.1,-145C626.2,-144.66 623.34,-144.33 620.5,-144 516,-131.89 398.45,-118.72 306.68,-108.53"/>
<polygon fill="black" stroke="black" points="307.16,-105.06 296.84,-107.44 306.39,-112.02 307.16,-105.06"/>
</g>
<!-- //src/main/java/com/example/ingredients:banana -->
<g id="node21" class="node">
<title>//src/main/java/com/example/ingredients:banana</title>
<polygon fill="none" stroke="black" points="593.88,-108 313.12,-108 313.12,-72 593.88,-72 593.88,-108"/>
<text text-anchor="middle" x="453.5" y="-84.95" font-family="Times,serif" font-size="14.00">//src/main/java/com/example/ingredients:banana</text>
</g>
<!-- //src/main/java/com/example/dishes:smoothie&#45;&gt;//src/main/java/com/example/ingredients:banana -->
<g id="edge21" class="edge">
<title>//src/main/java/com/example/dishes:smoothie&#45;&gt;//src/main/java/com/example/ingredients:banana</title>
<path fill="none" stroke="black" d="M685.32,-143.52C641.64,-133.62 586.85,-121.21 541.51,-110.94"/>
<polygon fill="black" stroke="black" points="542.5,-107.57 531.97,-108.78 540.95,-114.4 542.5,-107.57"/>
</g>
<!-- //src/main/java/com/example/ingredients:strawberry -->
<g id="node22" class="node">
<title>//src/main/java/com/example/ingredients:strawberry</title>
<polygon fill="none" stroke="black" points="912.62,-108 612.38,-108 612.38,-72 912.62,-72 912.62,-108"/>
<text text-anchor="middle" x="762.5" y="-84.95" font-family="Times,serif" font-size="14.00">//src/main/java/com/example/ingredients:strawberry</text>
</g>
<!-- //src/main/java/com/example/dishes:smoothie&#45;&gt;//src/main/java/com/example/ingredients:strawberry -->
<g id="edge22" class="edge">
<title>//src/main/java/com/example/dishes:smoothie&#45;&gt;//src/main/java/com/example/ingredients:strawberry</title>
<path fill="none" stroke="black" d="M762.5,-143.7C762.5,-136.41 762.5,-127.73 762.5,-119.54"/>
<polygon fill="black" stroke="black" points="766,-119.62 762.5,-109.62 759,-119.62 766,-119.62"/>
</g>
<!-- //src/main/java/com/example/ingredients:cheese -->
<g id="node11" class="node">
<title>//src/main/java/com/example/ingredients:cheese</title>
<polygon fill="none" stroke="black" points="1868.75,-108 1590.25,-108 1590.25,-72 1868.75,-72 1868.75,-108"/>
<text text-anchor="middle" x="1729.5" y="-84.95" font-family="Times,serif" font-size="14.00">//src/main/java/com/example/ingredients:cheese</text>
</g>
<!-- //src/main/java/com/example/dishes:macAndCheese&#45;&gt;//src/main/java/com/example/ingredients:cheese -->
<g id="edge16" class="edge">
<title>//src/main/java/com/example/dishes:macAndCheese&#45;&gt;//src/main/java/com/example/ingredients:cheese</title>
<path fill="none" stroke="black" d="M1377.64,-143.52C1445.76,-133.35 1531.68,-120.53 1601.56,-110.1"/>
<polygon fill="black" stroke="black" points="1601.77,-113.6 1611.14,-108.67 1600.73,-106.68 1601.77,-113.6"/>
</g>
<!-- //src/main/java/com/example/dishes:MacAndCheese.java -->
<g id="node16" class="node">
<title>//src/main/java/com/example/dishes:MacAndCheese.java</title>
<polygon fill="none" stroke="black" points="1260.25,-108 930.75,-108 930.75,-72 1260.25,-72 1260.25,-108"/>
<text text-anchor="middle" x="1095.5" y="-84.95" font-family="Times,serif" font-size="14.00">//src/main/java/com/example/dishes:MacAndCheese.java</text>
</g>
<!-- //src/main/java/com/example/dishes:macAndCheese&#45;&gt;//src/main/java/com/example/dishes:MacAndCheese.java -->
<g id="edge15" class="edge">
<title>//src/main/java/com/example/dishes:macAndCheese&#45;&gt;//src/main/java/com/example/dishes:MacAndCheese.java</title>
<path fill="none" stroke="black" d="M1219.29,-143.52C1197.35,-134.21 1170.17,-122.68 1146.87,-112.79"/>
<polygon fill="black" stroke="black" points="1148.44,-109.66 1137.86,-108.97 1145.7,-116.1 1148.44,-109.66"/>
</g>
<!-- //src/main/java/com/example/ingredients:macaroni -->
<g id="node17" class="node">
<title>//src/main/java/com/example/ingredients:macaroni</title>
<polygon fill="none" stroke="black" points="1572.25,-108 1278.75,-108 1278.75,-72 1572.25,-72 1572.25,-108"/>
<text text-anchor="middle" x="1425.5" y="-84.95" font-family="Times,serif" font-size="14.00">//src/main/java/com/example/ingredients:macaroni</text>
</g>
<!-- //src/main/java/com/example/dishes:macAndCheese&#45;&gt;//src/main/java/com/example/ingredients:macaroni -->
<g id="edge17" class="edge">
<title>//src/main/java/com/example/dishes:macAndCheese&#45;&gt;//src/main/java/com/example/ingredients:macaroni</title>
<path fill="none" stroke="black" d="M1301.71,-143.52C1323.65,-134.21 1350.83,-122.68 1374.13,-112.79"/>
<polygon fill="black" stroke="black" points="1375.3,-116.1 1383.14,-108.97 1372.56,-109.66 1375.3,-116.1"/>
</g>
<!-- //src/main/java/com/example/dishes:Pizza.java -->
<g id="node10" class="node">
<title>//src/main/java/com/example/dishes:Pizza.java</title>
<polygon fill="none" stroke="black" points="2158.38,-108 1886.62,-108 1886.62,-72 2158.38,-72 2158.38,-108"/>
<text text-anchor="middle" x="2022.5" y="-84.95" font-family="Times,serif" font-size="14.00">//src/main/java/com/example/dishes:Pizza.java</text>
</g>
<!-- //src/main/java/com/example/dishes:pizza&#45;&gt;//src/main/java/com/example/dishes:Pizza.java -->
<g id="edge9" class="edge">
<title>//src/main/java/com/example/dishes:pizza&#45;&gt;//src/main/java/com/example/dishes:Pizza.java</title>
<path fill="none" stroke="black" d="M2022.5,-143.7C2022.5,-136.41 2022.5,-127.73 2022.5,-119.54"/>
<polygon fill="black" stroke="black" points="2026,-119.62 2022.5,-109.62 2019,-119.62 2026,-119.62"/>
</g>
<!-- //src/main/java/com/example/dishes:pizza&#45;&gt;//src/main/java/com/example/ingredients:cheese -->
<g id="edge10" class="edge">
<title>//src/main/java/com/example/dishes:pizza&#45;&gt;//src/main/java/com/example/ingredients:cheese</title>
<path fill="none" stroke="black" d="M1949.32,-143.52C1908.08,-133.66 1856.39,-121.31 1813.5,-111.07"/>
<polygon fill="black" stroke="black" points="1814.52,-107.71 1803.98,-108.79 1812.89,-114.52 1814.52,-107.71"/>
</g>
<!-- //src/main/java/com/example/ingredients:tomato -->
<g id="node12" class="node">
<title>//src/main/java/com/example/ingredients:tomato</title>
<polygon fill="none" stroke="black" points="2456.88,-108 2176.12,-108 2176.12,-72 2456.88,-72 2456.88,-108"/>
<text text-anchor="middle" x="2316.5" y="-84.95" font-family="Times,serif" font-size="14.00">//src/main/java/com/example/ingredients:tomato</text>
</g>
<!-- //src/main/java/com/example/dishes:pizza&#45;&gt;//src/main/java/com/example/ingredients:tomato -->
<g id="edge11" class="edge">
<title>//src/main/java/com/example/dishes:pizza&#45;&gt;//src/main/java/com/example/ingredients:tomato</title>
<path fill="none" stroke="black" d="M2095.93,-143.52C2137.31,-133.66 2189.18,-121.31 2232.22,-111.07"/>
<polygon fill="black" stroke="black" points="2232.85,-114.51 2241.77,-108.79 2231.23,-107.7 2232.85,-114.51"/>
</g>
<!-- //src/main/java/com/example/ingredients:dough -->
<g id="node13" class="node">
<title>//src/main/java/com/example/ingredients:dough</title>
<polygon fill="none" stroke="black" points="2766.62,-108 2490.38,-108 2490.38,-72 2766.62,-72 2766.62,-108"/>
<text text-anchor="middle" x="2628.5" y="-84.95" font-family="Times,serif" font-size="14.00">//src/main/java/com/example/ingredients:dough</text>
</g>
<!-- //src/main/java/com/example/dishes:pizza&#45;&gt;//src/main/java/com/example/ingredients:dough -->
<g id="edge12" class="edge">
<title>//src/main/java/com/example/dishes:pizza&#45;&gt;//src/main/java/com/example/ingredients:dough</title>
<path fill="none" stroke="black" d="M2145.13,-146.83C2241.39,-135.72 2375.83,-120.19 2478.49,-108.33"/>
<polygon fill="black" stroke="black" points="2478.87,-111.81 2488.4,-107.18 2478.06,-104.85 2478.87,-111.81"/>
</g>
<!-- //src/main/java/com/example/ingredients:Cheese.java -->
<g id="node19" class="node">
<title>//src/main/java/com/example/ingredients:Cheese.java</title>
<polygon fill="none" stroke="black" points="1897.38,-36 1589.62,-36 1589.62,0 1897.38,0 1897.38,-36"/>
<text text-anchor="middle" x="1743.5" y="-12.95" font-family="Times,serif" font-size="14.00">//src/main/java/com/example/ingredients:Cheese.java</text>
</g>
<!-- //src/main/java/com/example/ingredients:cheese&#45;&gt;//src/main/java/com/example/ingredients:Cheese.java -->
<g id="edge19" class="edge">
<title>//src/main/java/com/example/ingredients:cheese&#45;&gt;//src/main/java/com/example/ingredients:Cheese.java</title>
<path fill="none" stroke="black" d="M1732.96,-71.7C1734.44,-64.32 1736.2,-55.52 1737.85,-47.25"/>
<polygon fill="black" stroke="black" points="1741.25,-48.08 1739.78,-37.59 1734.39,-46.71 1741.25,-48.08"/>
</g>
<!-- //src/main/java/com/example/ingredients:Tomato.java -->
<g id="node15" class="node">
<title>//src/main/java/com/example/ingredients:Tomato.java</title>
<polygon fill="none" stroke="black" points="2464.25,-36 2152.75,-36 2152.75,0 2464.25,0 2464.25,-36"/>
<text text-anchor="middle" x="2308.5" y="-12.95" font-family="Times,serif" font-size="14.00">//src/main/java/com/example/ingredients:Tomato.java</text>
</g>
<!-- //src/main/java/com/example/ingredients:tomato&#45;&gt;//src/main/java/com/example/ingredients:Tomato.java -->
<g id="edge14" class="edge">
<title>//src/main/java/com/example/ingredients:tomato&#45;&gt;//src/main/java/com/example/ingredients:Tomato.java</title>
<path fill="none" stroke="black" d="M2314.52,-71.7C2313.69,-64.41 2312.7,-55.73 2311.76,-47.54"/>
<polygon fill="black" stroke="black" points="2315.24,-47.15 2310.63,-37.61 2308.28,-47.94 2315.24,-47.15"/>
</g>
<!-- //src/main/java/com/example/ingredients:Dough.java -->
<g id="node14" class="node">
<title>//src/main/java/com/example/ingredients:Dough.java</title>
<polygon fill="none" stroke="black" points="2788.25,-36 2482.75,-36 2482.75,0 2788.25,0 2788.25,-36"/>
<text text-anchor="middle" x="2635.5" y="-12.95" font-family="Times,serif" font-size="14.00">//src/main/java/com/example/ingredients:Dough.java</text>
</g>
<!-- //src/main/java/com/example/ingredients:dough&#45;&gt;//src/main/java/com/example/ingredients:Dough.java -->
<g id="edge13" class="edge">
<title>//src/main/java/com/example/ingredients:dough&#45;&gt;//src/main/java/com/example/ingredients:Dough.java</title>
<path fill="none" stroke="black" d="M2630.23,-71.7C2630.96,-64.41 2631.83,-55.73 2632.65,-47.54"/>
<polygon fill="black" stroke="black" points="2636.13,-47.91 2633.64,-37.61 2629.16,-47.21 2636.13,-47.91"/>
</g>
<!-- //src/main/java/com/example/ingredients:Macaroni.java -->
<g id="node18" class="node">
<title>//src/main/java/com/example/ingredients:Macaroni.java</title>
<polygon fill="none" stroke="black" points="1571.12,-36 1249.88,-36 1249.88,0 1571.12,0 1571.12,-36"/>
<text text-anchor="middle" x="1410.5" y="-12.95" font-family="Times,serif" font-size="14.00">//src/main/java/com/example/ingredients:Macaroni.java</text>
</g>
<!-- //src/main/java/com/example/ingredients:macaroni&#45;&gt;//src/main/java/com/example/ingredients:Macaroni.java -->
<g id="edge18" class="edge">
<title>//src/main/java/com/example/ingredients:macaroni&#45;&gt;//src/main/java/com/example/ingredients:Macaroni.java</title>
<path fill="none" stroke="black" d="M1421.79,-71.7C1420.21,-64.32 1418.33,-55.52 1416.55,-47.25"/>
<polygon fill="black" stroke="black" points="1420,-46.63 1414.48,-37.58 1413.16,-48.1 1420,-46.63"/>
</g>
<!-- //src/main/java/com/example/ingredients:Banana.java -->
<g id="node24" class="node">
<title>//src/main/java/com/example/ingredients:Banana.java</title>
<polygon fill="none" stroke="black" points="594.12,-36 284.88,-36 284.88,0 594.12,0 594.12,-36"/>
<text text-anchor="middle" x="439.5" y="-12.95" font-family="Times,serif" font-size="14.00">//src/main/java/com/example/ingredients:Banana.java</text>
</g>
<!-- //src/main/java/com/example/ingredients:banana&#45;&gt;//src/main/java/com/example/ingredients:Banana.java -->
<g id="edge24" class="edge">
<title>//src/main/java/com/example/ingredients:banana&#45;&gt;//src/main/java/com/example/ingredients:Banana.java</title>
<path fill="none" stroke="black" d="M450.04,-71.7C448.56,-64.32 446.8,-55.52 445.15,-47.25"/>
<polygon fill="black" stroke="black" points="448.61,-46.71 443.22,-37.59 441.75,-48.08 448.61,-46.71"/>
</g>
<!-- //src/main/java/com/example/ingredients:Strawberry.java -->
<g id="node23" class="node">
<title>//src/main/java/com/example/ingredients:Strawberry.java</title>
<polygon fill="none" stroke="black" points="940.5,-36 612.5,-36 612.5,0 940.5,0 940.5,-36"/>
<text text-anchor="middle" x="776.5" y="-12.95" font-family="Times,serif" font-size="14.00">//src/main/java/com/example/ingredients:Strawberry.java</text>
</g>
<!-- //src/main/java/com/example/ingredients:strawberry&#45;&gt;//src/main/java/com/example/ingredients:Strawberry.java -->
<g id="edge23" class="edge">
<title>//src/main/java/com/example/ingredients:strawberry&#45;&gt;//src/main/java/com/example/ingredients:Strawberry.java</title>
<path fill="none" stroke="black" d="M765.96,-71.7C767.44,-64.32 769.2,-55.52 770.85,-47.25"/>
<polygon fill="black" stroke="black" points="774.25,-48.08 772.78,-37.59 767.39,-46.71 774.25,-48.08"/>
</g>
</g>
</svg>
