<?xml version="1.0" encoding="UTF-8" standalone="no"?>
<!DOCTYPE svg PUBLIC "-//W3C//DTD SVG 1.1//EN"
 "http://www.w3.org/Graphics/SVG/1.1/DTD/svg11.dtd">
<!-- Generated by graphviz version 12.2.1 (20241206.2353)
 -->
<!-- Title: mygraph Pages: 1 -->
<svg width="1216pt" height="265pt"
 viewBox="0.00 0.00 1215.88 265.00" xmlns="http://www.w3.org/2000/svg" xmlns:xlink="http://www.w3.org/1999/xlink">
<g id="graph0" class="graph" transform="scale(1 1) rotate(0) translate(4 261)">
<title>mygraph</title>
<polygon fill="white" stroke="none" points="-4,4 -4,-261 1211.88,-261 1211.88,4 -4,4"/>
<!-- //src/main/java/com/example/restaurant:cafe -->
<g id="node1" class="node">
<title>//src/main/java/com/example/restaurant:cafe</title>
<polygon fill="none" stroke="black" points="873.88,-257 615.62,-257 615.62,-221 873.88,-221 873.88,-257"/>
<text text-anchor="middle" x="744.75" y="-233.95" font-family="Times,serif" font-size="14.00">//src/main/java/com/example/restaurant:cafe</text>
</g>
<!-- //src/main/java/com/example/restaurant:chef -->
<g id="node2" class="node">
<title>//src/main/java/com/example/restaurant:chef</title>
<polygon fill="none" stroke="black" points="874.25,-185 615.25,-185 615.25,-149 874.25,-149 874.25,-185"/>
<text text-anchor="middle" x="744.75" y="-161.95" font-family="Times,serif" font-size="14.00">//src/main/java/com/example/restaurant:chef</text>
</g>
<!-- //src/main/java/com/example/restaurant:cafe&#45;&gt;//src/main/java/com/example/restaurant:chef -->
<g id="edge1" class="edge">
<title>//src/main/java/com/example/restaurant:cafe&#45;&gt;//src/main/java/com/example/restaurant:chef</title>
<path fill="none" stroke="black" d="M744.75,-220.7C744.75,-213.41 744.75,-204.73 744.75,-196.54"/>
<polygon fill="black" stroke="black" points="748.25,-196.62 744.75,-186.62 741.25,-196.62 748.25,-196.62"/>
</g>
<!-- //src/main/java/com/example/dishes:macAndCheese -->
<g id="node3" class="node">
<title>//src/main/java/com/example/dishes:macAndCheese</title>
<polygon fill="none" stroke="black" points="601.62,-113 299.88,-113 299.88,-77 601.62,-77 601.62,-113"/>
<text text-anchor="middle" x="450.75" y="-89.95" font-family="Times,serif" font-size="14.00">//src/main/java/com/example/dishes:macAndCheese</text>
</g>
<!-- //src/main/java/com/example/restaurant:chef&#45;&gt;//src/main/java/com/example/dishes:macAndCheese -->
<g id="edge2" class="edge">
<title>//src/main/java/com/example/restaurant:chef&#45;&gt;//src/main/java/com/example/dishes:macAndCheese</title>
<path fill="none" stroke="black" d="M671.32,-148.52C629.94,-138.66 578.07,-126.31 535.03,-116.07"/>
<polygon fill="black" stroke="black" points="536.02,-112.7 525.48,-113.79 534.4,-119.51 536.02,-112.7"/>
</g>
<!-- //src/main/java/com/example/dishes:smoothie -->
<g id="node4" class="node">
<title>//src/main/java/com/example/dishes:smoothie</title>
<polygon fill="none" stroke="black" points="1171,-113 904.5,-113 904.5,-77 1171,-77 1171,-113"/>
<text text-anchor="middle" x="1037.75" y="-89.95" font-family="Times,serif" font-size="14.00">//src/main/java/com/example/dishes:smoothie</text>
</g>
<!-- //src/main/java/com/example/restaurant:chef&#45;&gt;//src/main/java/com/example/dishes:smoothie -->
<g id="edge3" class="edge">
<title>//src/main/java/com/example/restaurant:chef&#45;&gt;//src/main/java/com/example/dishes:smoothie</title>
<path fill="none" stroke="black" d="M817.93,-148.52C859.17,-138.66 910.86,-126.31 953.75,-116.07"/>
<polygon fill="black" stroke="black" points="954.36,-119.52 963.27,-113.79 952.73,-112.71 954.36,-119.52"/>
</g>
<!-- //src/main/java/com/example/dishes:pizza -->
<g id="node5" class="node">
<title>//src/main/java/com/example/dishes:pizza</title>
<polygon fill="none" stroke="black" points="867.12,-113 622.38,-113 622.38,-77 867.12,-77 867.12,-113"/>
<text text-anchor="middle" x="744.75" y="-89.95" font-family="Times,serif" font-size="14.00">//src/main/java/com/example/dishes:pizza</text>
</g>
<!-- //src/main/java/com/example/restaurant:chef&#45;&gt;//src/main/java/com/example/dishes:pizza -->
<g id="edge4" class="edge">
<title>//src/main/java/com/example/restaurant:chef&#45;&gt;//src/main/java/com/example/dishes:pizza</title>
<path fill="none" stroke="black" d="M744.75,-148.7C744.75,-141.41 744.75,-132.73 744.75,-124.54"/>
<polygon fill="black" stroke="black" points="748.25,-124.62 744.75,-114.62 741.25,-124.62 748.25,-124.62"/>
</g>
<!-- //src/main/java/com/example/ingredients:macaroni -->
<g id="node6" class="node">
<title>//src/main/java/com/example/ingredients:macaroni</title>
<polygon fill="none" stroke="black" points="293.5,-38.5 0,-38.5 0,-2.5 293.5,-2.5 293.5,-38.5"/>
<text text-anchor="middle" x="146.75" y="-15.45" font-family="Times,serif" font-size="14.00">//src/main/java/com/example/ingredients:macaroni</text>
</g>
<!-- //src/main/java/com/example/dishes:macAndCheese&#45;&gt;//src/main/java/com/example/ingredients:macaroni -->
<g id="edge5" class="edge">
<title>//src/main/java/com/example/dishes:macAndCheese&#45;&gt;//src/main/java/com/example/ingredients:macaroni</title>
<path fill="none" stroke="black" d="M377.55,-76.54C333.48,-66.03 277.2,-52.61 231.25,-41.65"/>
<polygon fill="black" stroke="black" points="232.12,-38.26 221.58,-39.35 230.49,-45.07 232.12,-38.26"/>
</g>
<!-- //src/main/java/com/example/ingredients:cheese -->
<g id="node7" class="node">
<title>//src/main/java/com/example/ingredients:cheese</title>
<polygon fill="none" stroke="black" points="590,-38.5 311.5,-38.5 311.5,-2.5 590,-2.5 590,-38.5"/>
<text text-anchor="middle" x="450.75" y="-15.45" font-family="Times,serif" font-size="14.00">//src/main/java/com/example/ingredients:cheese</text>
</g>
<!-- //src/main/java/com/example/dishes:macAndCheese&#45;&gt;//src/main/java/com/example/ingredients:cheese -->
<g id="edge6" class="edge">
<title>//src/main/java/com/example/dishes:macAndCheese&#45;&gt;//src/main/java/com/example/ingredients:cheese</title>
<path fill="none" stroke="black" d="M450.75,-76.82C450.75,-68.78 450.75,-59 450.75,-49.91"/>
<polygon fill="black" stroke="black" points="454.25,-50.07 450.75,-40.07 447.25,-50.07 454.25,-50.07"/>
</g>
<!-- //src/main/java/com/example/ingredients:strawberry\n//src/main/java/com/example/ingredients:banana -->
<g id="node9" class="node">
<title>//src/main/java/com/example/ingredients:strawberry\n//src/main/java/com/example/ingredients:banana</title>
<polygon fill="none" stroke="black" points="1207.88,-41 907.62,-41 907.62,0 1207.88,0 1207.88,-41"/>
<text text-anchor="middle" x="1057.75" y="-23.7" font-family="Times,serif" font-size="14.00">//src/main/java/com/example/ingredients:strawberry</text>
<text text-anchor="middle" x="1057.75" y="-7.2" font-family="Times,serif" font-size="14.00">//src/main/java/com/example/ingredients:banana</text>
</g>
<!-- //src/main/java/com/example/dishes:smoothie&#45;&gt;//src/main/java/com/example/ingredients:strawberry\n//src/main/java/com/example/ingredients:banana -->
<g id="edge9" class="edge">
<title>//src/main/java/com/example/dishes:smoothie&#45;&gt;//src/main/java/com/example/ingredients:strawberry\n//src/main/java/com/example/ingredients:banana</title>
<path fill="none" stroke="black" d="M1042.49,-76.82C1044.51,-69.51 1046.92,-60.75 1049.23,-52.38"/>
<polygon fill="black" stroke="black" points="1052.58,-53.41 1051.86,-42.84 1045.83,-51.55 1052.58,-53.41"/>
</g>
<!-- //src/main/java/com/example/dishes:pizza&#45;&gt;//src/main/java/com/example/ingredients:cheese -->
<g id="edge8" class="edge">
<title>//src/main/java/com/example/dishes:pizza&#45;&gt;//src/main/java/com/example/ingredients:cheese</title>
<path fill="none" stroke="black" d="M673.96,-76.54C631.43,-66.06 577.14,-52.67 532.75,-41.72"/>
<polygon fill="black" stroke="black" points="533.71,-38.35 523.16,-39.36 532.03,-45.15 533.71,-38.35"/>
</g>
<!-- //src/main/java/com/example/ingredients:tomato\n//src/main/java/com/example/ingredients:dough -->
<g id="node8" class="node">
<title>//src/main/java/com/example/ingredients:tomato\n//src/main/java/com/example/ingredients:dough</title>
<polygon fill="none" stroke="black" points="889.12,-41 608.38,-41 608.38,0 889.12,0 889.12,-41"/>
<text text-anchor="middle" x="748.75" y="-23.7" font-family="Times,serif" font-size="14.00">//src/main/java/com/example/ingredients:tomato</text>
<text text-anchor="middle" x="748.75" y="-7.2" font-family="Times,serif" font-size="14.00">//src/main/java/com/example/ingredients:dough</text>
</g>
<!-- //src/main/java/com/example/dishes:pizza&#45;&gt;//src/main/java/com/example/ingredients:tomato\n//src/main/java/com/example/ingredients:dough -->
<g id="edge7" class="edge">
<title>//src/main/java/com/example/dishes:pizza&#45;&gt;//src/main/java/com/example/ingredients:tomato\n//src/main/java/com/example/ingredients:dough</title>
<path fill="none" stroke="black" d="M745.7,-76.82C746.1,-69.59 746.57,-60.95 747.03,-52.66"/>
<polygon fill="black" stroke="black" points="750.51,-53.07 747.57,-42.89 743.52,-52.68 750.51,-53.07"/>
</g>
</g>
</svg>
