<?xml version="1.0" encoding="UTF-8" standalone="no"?>
<!DOCTYPE svg PUBLIC "-//W3C//DTD SVG 1.1//EN"
 "http://www.w3.org/Graphics/SVG/1.1/DTD/svg11.dtd">
<!-- Generated by graphviz version 12.2.1 (20241206.2353)
 -->
<!-- Title: mygraph Pages: 1 -->
<svg width="1857pt" height="409pt"
 viewBox="0.00 0.00 1857.38 409.00" xmlns="http://www.w3.org/2000/svg" xmlns:xlink="http://www.w3.org/1999/xlink">
<g id="graph0" class="graph" transform="scale(1 1) rotate(0) translate(4 405)">
<title>mygraph</title>
<polygon fill="white" stroke="none" points="-4,4 -4,-405 1853.38,-405 1853.38,4 -4,4"/>
<!-- //:runner -->
<g id="node1" class="node">
<title>//:runner</title>
<polygon fill="none" stroke="black" points="488,-401 425.5,-401 425.5,-365 488,-365 488,-401"/>
<text text-anchor="middle" x="456.75" y="-377.95" font-family="Times,serif" font-size="14.00">//:runner</text>
</g>
<!-- //:src/main/java/com/example/Runner.java\n@bazel_tools//tools/jdk:launcher_flag_alias -->
<g id="node2" class="node">
<title>//:src/main/java/com/example/Runner.java\n@bazel_tools//tools/jdk:launcher_flag_alias</title>
<polygon fill="none" stroke="black" points="447,-329 192.5,-329 192.5,-288 447,-288 447,-329"/>
<text text-anchor="middle" x="319.75" y="-311.7" font-family="Times,serif" font-size="14.00">//:src/main/java/com/example/Runner.java</text>
<text text-anchor="middle" x="319.75" y="-295.2" font-family="Times,serif" font-size="14.00">@bazel_tools//tools/jdk:launcher_flag_alias</text>
</g>
<!-- //:runner&#45;&gt;//:src/main/java/com/example/Runner.java\n@bazel_tools//tools/jdk:launcher_flag_alias -->
<g id="edge1" class="edge">
<title>//:runner&#45;&gt;//:src/main/java/com/example/Runner.java\n@bazel_tools//tools/jdk:launcher_flag_alias</title>
<path fill="none" stroke="black" d="M425.32,-365.37C408.18,-356.3 386.6,-344.88 367.43,-334.73"/>
<polygon fill="black" stroke="black" points="369.18,-331.7 358.7,-330.11 365.91,-337.89 369.18,-331.7"/>
</g>
<!-- //src/main/java/com/example/restaurant:cafe -->
<g id="node3" class="node">
<title>//src/main/java/com/example/restaurant:cafe</title>
<polygon fill="none" stroke="black" points="722.88,-326.5 464.62,-326.5 464.62,-290.5 722.88,-290.5 722.88,-326.5"/>
<text text-anchor="middle" x="593.75" y="-303.45" font-family="Times,serif" font-size="14.00">//src/main/java/com/example/restaurant:cafe</text>
</g>
<!-- //:runner&#45;&gt;//src/main/java/com/example/restaurant:cafe -->
<g id="edge2" class="edge">
<title>//:runner&#45;&gt;//src/main/java/com/example/restaurant:cafe</title>
<path fill="none" stroke="black" d="M488.18,-365.37C506.83,-355.5 530.73,-342.85 551.07,-332.08"/>
<polygon fill="black" stroke="black" points="552.5,-335.29 559.7,-327.52 549.22,-329.1 552.5,-335.29"/>
</g>
<!-- //src/main/java/com/example/restaurant:Cafe.java -->
<g id="node4" class="node">
<title>//src/main/java/com/example/restaurant:Cafe.java</title>
<polygon fill="none" stroke="black" points="591.5,-252 304,-252 304,-216 591.5,-216 591.5,-252"/>
<text text-anchor="middle" x="447.75" y="-228.95" font-family="Times,serif" font-size="14.00">//src/main/java/com/example/restaurant:Cafe.java</text>
</g>
<!-- //src/main/java/com/example/restaurant:cafe&#45;&gt;//src/main/java/com/example/restaurant:Cafe.java -->
<g id="edge3" class="edge">
<title>//src/main/java/com/example/restaurant:cafe&#45;&gt;//src/main/java/com/example/restaurant:Cafe.java</title>
<path fill="none" stroke="black" d="M558.78,-290.13C539.06,-280.34 514.2,-268 493.01,-257.48"/>
<polygon fill="black" stroke="black" points="494.81,-254.46 484.3,-253.15 491.7,-260.73 494.81,-254.46"/>
</g>
<!-- //src/main/java/com/example/restaurant:chef -->
<g id="node5" class="node">
<title>//src/main/java/com/example/restaurant:chef</title>
<polygon fill="none" stroke="black" points="868.25,-252 609.25,-252 609.25,-216 868.25,-216 868.25,-252"/>
<text text-anchor="middle" x="738.75" y="-228.95" font-family="Times,serif" font-size="14.00">//src/main/java/com/example/restaurant:chef</text>
</g>
<!-- //src/main/java/com/example/restaurant:cafe&#45;&gt;//src/main/java/com/example/restaurant:chef -->
<g id="edge4" class="edge">
<title>//src/main/java/com/example/restaurant:cafe&#45;&gt;//src/main/java/com/example/restaurant:chef</title>
<path fill="none" stroke="black" d="M628.48,-290.13C647.98,-280.39 672.53,-268.11 693.51,-257.62"/>
<polygon fill="black" stroke="black" points="695.07,-260.75 702.45,-253.15 691.94,-254.49 695.07,-260.75"/>
</g>
<!-- //src/main/java/com/example/restaurant:Chef.java -->
<g id="node6" class="node">
<title>//src/main/java/com/example/restaurant:Chef.java</title>
<polygon fill="none" stroke="black" points="597.88,-180 309.62,-180 309.62,-144 597.88,-144 597.88,-180"/>
<text text-anchor="middle" x="453.75" y="-156.95" font-family="Times,serif" font-size="14.00">//src/main/java/com/example/restaurant:Chef.java</text>
</g>
<!-- //src/main/java/com/example/restaurant:chef&#45;&gt;//src/main/java/com/example/restaurant:Chef.java -->
<g id="edge5" class="edge">
<title>//src/main/java/com/example/restaurant:chef&#45;&gt;//src/main/java/com/example/restaurant:Chef.java</title>
<path fill="none" stroke="black" d="M667.57,-215.52C627.46,-205.67 577.2,-193.32 535.48,-183.07"/>
<polygon fill="black" stroke="black" points="536.53,-179.73 525.99,-180.74 534.86,-186.53 536.53,-179.73"/>
</g>
<!-- //src/main/java/com/example/dishes:pizza -->
<g id="node7" class="node">
<title>//src/main/java/com/example/dishes:pizza</title>
<polygon fill="none" stroke="black" points="861.12,-180 616.38,-180 616.38,-144 861.12,-144 861.12,-180"/>
<text text-anchor="middle" x="738.75" y="-156.95" font-family="Times,serif" font-size="14.00">//src/main/java/com/example/dishes:pizza</text>
</g>
<!-- //src/main/java/com/example/restaurant:chef&#45;&gt;//src/main/java/com/example/dishes:pizza -->
<g id="edge6" class="edge">
<title>//src/main/java/com/example/restaurant:chef&#45;&gt;//src/main/java/com/example/dishes:pizza</title>
<path fill="none" stroke="black" d="M738.75,-215.7C738.75,-208.41 738.75,-199.73 738.75,-191.54"/>
<polygon fill="black" stroke="black" points="742.25,-191.62 738.75,-181.62 735.25,-191.62 742.25,-191.62"/>
</g>
<!-- //src/main/java/com/example/dishes:macAndCheese -->
<g id="node8" class="node">
<title>//src/main/java/com/example/dishes:macAndCheese</title>
<polygon fill="none" stroke="black" points="1348.62,-180 1046.88,-180 1046.88,-144 1348.62,-144 1348.62,-180"/>
<text text-anchor="middle" x="1197.75" y="-156.95" font-family="Times,serif" font-size="14.00">//src/main/java/com/example/dishes:macAndCheese</text>
</g>
<!-- //src/main/java/com/example/restaurant:chef&#45;&gt;//src/main/java/com/example/dishes:macAndCheese -->
<g id="edge7" class="edge">
<title>//src/main/java/com/example/restaurant:chef&#45;&gt;//src/main/java/com/example/dishes:macAndCheese</title>
<path fill="none" stroke="black" d="M853.39,-215.52C919.92,-205.37 1003.8,-192.58 1072.12,-182.16"/>
<polygon fill="black" stroke="black" points="1072.52,-185.64 1081.88,-180.67 1071.47,-178.72 1072.52,-185.64"/>
</g>
<!-- //src/main/java/com/example/ingredients:cheese -->
<g id="node11" class="node">
<title>//src/main/java/com/example/ingredients:cheese</title>
<polygon fill="none" stroke="black" points="1176,-108 897.5,-108 897.5,-72 1176,-72 1176,-108"/>
<text text-anchor="middle" x="1036.75" y="-84.95" font-family="Times,serif" font-size="14.00">//src/main/java/com/example/ingredients:cheese</text>
</g>
<!-- //src/main/java/com/example/dishes:pizza&#45;&gt;//src/main/java/com/example/ingredients:cheese -->
<g id="edge15" class="edge">
<title>//src/main/java/com/example/dishes:pizza&#45;&gt;//src/main/java/com/example/ingredients:cheese</title>
<path fill="none" stroke="black" d="M813.18,-143.52C855.13,-133.66 907.7,-121.31 951.32,-111.07"/>
<polygon fill="black" stroke="black" points="952.09,-114.48 961.02,-108.79 950.49,-107.67 952.09,-114.48"/>
</g>
<!-- //src/main/java/com/example/dishes:Pizza.java -->
<g id="node13" class="node">
<title>//src/main/java/com/example/dishes:Pizza.java</title>
<polygon fill="none" stroke="black" points="580.62,-108 308.88,-108 308.88,-72 580.62,-72 580.62,-108"/>
<text text-anchor="middle" x="444.75" y="-84.95" font-family="Times,serif" font-size="14.00">//src/main/java/com/example/dishes:Pizza.java</text>
</g>
<!-- //src/main/java/com/example/dishes:pizza&#45;&gt;//src/main/java/com/example/dishes:Pizza.java -->
<g id="edge12" class="edge">
<title>//src/main/java/com/example/dishes:pizza&#45;&gt;//src/main/java/com/example/dishes:Pizza.java</title>
<path fill="none" stroke="black" d="M665.32,-143.52C623.94,-133.66 572.07,-121.31 529.03,-111.07"/>
<polygon fill="black" stroke="black" points="530.02,-107.7 519.48,-108.79 528.4,-114.51 530.02,-107.7"/>
</g>
<!-- //src/main/java/com/example/ingredients:tomato -->
<g id="node14" class="node">
<title>//src/main/java/com/example/ingredients:tomato</title>
<polygon fill="none" stroke="black" points="879.12,-108 598.38,-108 598.38,-72 879.12,-72 879.12,-108"/>
<text text-anchor="middle" x="738.75" y="-84.95" font-family="Times,serif" font-size="14.00">//src/main/java/com/example/ingredients:tomato</text>
</g>
<!-- //src/main/java/com/example/dishes:pizza&#45;&gt;//src/main/java/com/example/ingredients:tomato -->
<g id="edge13" class="edge">
<title>//src/main/java/com/example/dishes:pizza&#45;&gt;//src/main/java/com/example/ingredients:tomato</title>
<path fill="none" stroke="black" d="M738.75,-143.7C738.75,-136.41 738.75,-127.73 738.75,-119.54"/>
<polygon fill="black" stroke="black" points="742.25,-119.62 738.75,-109.62 735.25,-119.62 742.25,-119.62"/>
</g>
<!-- //src/main/java/com/example/ingredients:dough -->
<g id="node15" class="node">
<title>//src/main/java/com/example/ingredients:dough</title>
<polygon fill="none" stroke="black" points="290.88,-108 14.62,-108 14.62,-72 290.88,-72 290.88,-108"/>
<text text-anchor="middle" x="152.75" y="-84.95" font-family="Times,serif" font-size="14.00">//src/main/java/com/example/ingredients:dough</text>
</g>
<!-- //src/main/java/com/example/dishes:pizza&#45;&gt;//src/main/java/com/example/ingredients:dough -->
<g id="edge14" class="edge">
<title>//src/main/java/com/example/dishes:pizza&#45;&gt;//src/main/java/com/example/ingredients:dough</title>
<path fill="none" stroke="black" d="M616.15,-145.16C612.98,-144.77 609.85,-144.38 606.75,-144 576.87,-140.33 422.86,-122.39 302.4,-108.38"/>
<polygon fill="black" stroke="black" points="303.06,-104.93 292.73,-107.26 302.25,-111.89 303.06,-104.93"/>
</g>
<!-- //src/main/java/com/example/dishes:MacAndCheese.java -->
<g id="node9" class="node">
<title>//src/main/java/com/example/dishes:MacAndCheese.java</title>
<polygon fill="none" stroke="black" points="1523.5,-108 1194,-108 1194,-72 1523.5,-72 1523.5,-108"/>
<text text-anchor="middle" x="1358.75" y="-84.95" font-family="Times,serif" font-size="14.00">//src/main/java/com/example/dishes:MacAndCheese.java</text>
</g>
<!-- //src/main/java/com/example/dishes:macAndCheese&#45;&gt;//src/main/java/com/example/dishes:MacAndCheese.java -->
<g id="edge8" class="edge">
<title>//src/main/java/com/example/dishes:macAndCheese&#45;&gt;//src/main/java/com/example/dishes:MacAndCheese.java</title>
<path fill="none" stroke="black" d="M1237.96,-143.52C1259.27,-134.25 1285.65,-122.78 1308.32,-112.93"/>
<polygon fill="black" stroke="black" points="1309.61,-116.18 1317.38,-108.99 1306.82,-109.76 1309.61,-116.18"/>
</g>
<!-- //src/main/java/com/example/ingredients:macaroni -->
<g id="node10" class="node">
<title>//src/main/java/com/example/ingredients:macaroni</title>
<polygon fill="none" stroke="black" points="1835.5,-108 1542,-108 1542,-72 1835.5,-72 1835.5,-108"/>
<text text-anchor="middle" x="1688.75" y="-84.95" font-family="Times,serif" font-size="14.00">//src/main/java/com/example/ingredients:macaroni</text>
</g>
<!-- //src/main/java/com/example/dishes:macAndCheese&#45;&gt;//src/main/java/com/example/ingredients:macaroni -->
<g id="edge9" class="edge">
<title>//src/main/java/com/example/dishes:macAndCheese&#45;&gt;//src/main/java/com/example/ingredients:macaroni</title>
<path fill="none" stroke="black" d="M1320.38,-143.52C1391.84,-133.33 1482.02,-120.47 1555.26,-110.03"/>
<polygon fill="black" stroke="black" points="1555.5,-113.53 1564.91,-108.66 1554.51,-106.6 1555.5,-113.53"/>
</g>
<!-- //src/main/java/com/example/dishes:macAndCheese&#45;&gt;//src/main/java/com/example/ingredients:cheese -->
<g id="edge10" class="edge">
<title>//src/main/java/com/example/dishes:macAndCheese&#45;&gt;//src/main/java/com/example/ingredients:cheese</title>
<path fill="none" stroke="black" d="M1157.54,-143.52C1136.23,-134.25 1109.85,-122.78 1087.18,-112.93"/>
<polygon fill="black" stroke="black" points="1088.68,-109.76 1078.12,-108.99 1085.89,-116.18 1088.68,-109.76"/>
</g>
<!-- //src/main/java/com/example/ingredients:Macaroni.java -->
<g id="node12" class="node">
<title>//src/main/java/com/example/ingredients:Macaroni.java</title>
<polygon fill="none" stroke="black" points="1849.38,-36 1528.12,-36 1528.12,0 1849.38,0 1849.38,-36"/>
<text text-anchor="middle" x="1688.75" y="-12.95" font-family="Times,serif" font-size="14.00">//src/main/java/com/example/ingredients:Macaroni.java</text>
</g>
<!-- //src/main/java/com/example/ingredients:macaroni&#45;&gt;//src/main/java/com/example/ingredients:Macaroni.java -->
<g id="edge11" class="edge">
<title>//src/main/java/com/example/ingredients:macaroni&#45;&gt;//src/main/java/com/example/ingredients:Macaroni.java</title>
<path fill="none" stroke="black" d="M1688.75,-71.7C1688.75,-64.41 1688.75,-55.73 1688.75,-47.54"/>
<polygon fill="black" stroke="black" points="1692.25,-47.62 1688.75,-37.62 1685.25,-47.62 1692.25,-47.62"/>
</g>
<!-- //src/main/java/com/example/ingredients:Cheese.java -->
<g id="node16" class="node">
<title>//src/main/java/com/example/ingredients:Cheese.java</title>
<polygon fill="none" stroke="black" points="1205.62,-36 897.88,-36 897.88,0 1205.62,0 1205.62,-36"/>
<text text-anchor="middle" x="1051.75" y="-12.95" font-family="Times,serif" font-size="14.00">//src/main/java/com/example/ingredients:Cheese.java</text>
</g>
<!-- //src/main/java/com/example/ingredients:cheese&#45;&gt;//src/main/java/com/example/ingredients:Cheese.java -->
<g id="edge16" class="edge">
<title>//src/main/java/com/example/ingredients:cheese&#45;&gt;//src/main/java/com/example/ingredients:Cheese.java</title>
<path fill="none" stroke="black" d="M1040.46,-71.7C1042.04,-64.32 1043.92,-55.52 1045.7,-47.25"/>
<polygon fill="black" stroke="black" points="1049.09,-48.1 1047.77,-37.58 1042.25,-46.63 1049.09,-48.1"/>
</g>
<!-- //src/main/java/com/example/ingredients:Tomato.java -->
<g id="node17" class="node">
<title>//src/main/java/com/example/ingredients:Tomato.java</title>
<polygon fill="none" stroke="black" points="879.5,-36 568,-36 568,0 879.5,0 879.5,-36"/>
<text text-anchor="middle" x="723.75" y="-12.95" font-family="Times,serif" font-size="14.00">//src/main/java/com/example/ingredients:Tomato.java</text>
</g>
<!-- //src/main/java/com/example/ingredients:tomato&#45;&gt;//src/main/java/com/example/ingredients:Tomato.java -->
<g id="edge17" class="edge">
<title>//src/main/java/com/example/ingredients:tomato&#45;&gt;//src/main/java/com/example/ingredients:Tomato.java</title>
<path fill="none" stroke="black" d="M735.04,-71.7C733.46,-64.32 731.58,-55.52 729.8,-47.25"/>
<polygon fill="black" stroke="black" points="733.25,-46.63 727.73,-37.58 726.41,-48.1 733.25,-46.63"/>
</g>
<!-- //src/main/java/com/example/ingredients:Dough.java -->
<g id="node18" class="node">
<title>//src/main/java/com/example/ingredients:Dough.java</title>
<polygon fill="none" stroke="black" points="305.5,-36 0,-36 0,0 305.5,0 305.5,-36"/>
<text text-anchor="middle" x="152.75" y="-12.95" font-family="Times,serif" font-size="14.00">//src/main/java/com/example/ingredients:Dough.java</text>
</g>
<!-- //src/main/java/com/example/ingredients:dough&#45;&gt;//src/main/java/com/example/ingredients:Dough.java -->
<g id="edge18" class="edge">
<title>//src/main/java/com/example/ingredients:dough&#45;&gt;//src/main/java/com/example/ingredients:Dough.java</title>
<path fill="none" stroke="black" d="M152.75,-71.7C152.75,-64.41 152.75,-55.73 152.75,-47.54"/>
<polygon fill="black" stroke="black" points="156.25,-47.62 152.75,-37.62 149.25,-47.62 156.25,-47.62"/>
</g>
</g>
</svg>
