<?xml version="1.0" encoding="UTF-8" standalone="no"?>
<!DOCTYPE svg PUBLIC "-//W3C//DTD SVG 1.1//EN"
 "http://www.w3.org/Graphics/SVG/1.1/DTD/svg11.dtd">
<!-- Generated by graphviz version 12.2.1 (20241206.2353)
 -->
<!-- Title: mygraph Pages: 1 -->
<svg width="310pt" height="193pt"
 viewBox="0.00 0.00 309.75 193.00" xmlns="http://www.w3.org/2000/svg" xmlns:xlink="http://www.w3.org/1999/xlink">
<g id="graph0" class="graph" transform="scale(1 1) rotate(0) translate(4 189)">
<title>mygraph</title>
<polygon fill="white" stroke="none" points="-4,4 -4,-189 305.75,-189 305.75,4 -4,4"/>
<!-- //src/main/java/com/example/restaurant:cafe -->
<g id="node1" class="node">
<title>//src/main/java/com/example/restaurant:cafe</title>
<polygon fill="none" stroke="black" points="280,-185 21.75,-185 21.75,-149 280,-149 280,-185"/>
<text text-anchor="middle" x="150.88" y="-161.95" font-family="Times,serif" font-size="14.00">//src/main/java/com/example/restaurant:cafe</text>
</g>
<!-- //src/main/java/com/example/restaurant:chef -->
<g id="node2" class="node">
<title>//src/main/java/com/example/restaurant:chef</title>
<polygon fill="none" stroke="black" points="280.38,-113 21.38,-113 21.38,-77 280.38,-77 280.38,-113"/>
<text text-anchor="middle" x="150.88" y="-89.95" font-family="Times,serif" font-size="14.00">//src/main/java/com/example/restaurant:chef</text>
</g>
<!-- //src/main/java/com/example/restaurant:cafe&#45;&gt;//src/main/java/com/example/restaurant:chef -->
<g id="edge1" class="edge">
<title>//src/main/java/com/example/restaurant:cafe&#45;&gt;//src/main/java/com/example/restaurant:chef</title>
<path fill="none" stroke="black" d="M150.88,-148.7C150.88,-141.41 150.88,-132.73 150.88,-124.54"/>
<polygon fill="black" stroke="black" points="154.38,-124.62 150.88,-114.62 147.38,-124.62 154.38,-124.62"/>
</g>
<!-- //src/main/java/com/example/dishes:macAndCheese\n//src/main/java/com/example/dishes:pizza -->
<g id="node3" class="node">
<title>//src/main/java/com/example/dishes:macAndCheese\n//src/main/java/com/example/dishes:pizza</title>
<polygon fill="none" stroke="black" points="301.75,-41 0,-41 0,0 301.75,0 301.75,-41"/>
<text text-anchor="middle" x="150.88" y="-23.7" font-family="Times,serif" font-size="14.00">//src/main/java/com/example/dishes:macAndCheese</text>
<text text-anchor="middle" x="150.88" y="-7.2" font-family="Times,serif" font-size="14.00">//src/main/java/com/example/dishes:pizza</text>
</g>
<!-- //src/main/java/com/example/restaurant:chef&#45;&gt;//src/main/java/com/example/dishes:macAndCheese\n//src/main/java/com/example/dishes:pizza -->
<g id="edge2" class="edge">
<title>//src/main/java/com/example/restaurant:chef&#45;&gt;//src/main/java/com/example/dishes:macAndCheese\n//src/main/java/com/example/dishes:pizza</title>
<path fill="none" stroke="black" d="M150.88,-76.82C150.88,-69.59 150.88,-60.95 150.88,-52.66"/>
<polygon fill="black" stroke="black" points="154.38,-52.89 150.88,-42.89 147.38,-52.89 154.38,-52.89"/>
</g>
</g>
</svg>
